<svg xmlns="http://www.w3.org/2000/svg" width="1200" height="260" viewBox="0 0 1200 260" fill="none">
  <g transform="translate(24,14) scale(0.5)">
    <path d="M256 58 L372 108 V246 C372 342 314 407 256 446 C198 407 140 342 140 246 V108 L256 58 Z"
          fill="none" stroke="#9CA3AF" stroke-width="24" stroke-linejoin="round"/>
    <path d="M188 176 C236 136 332 150 332 220 C332 268 244 256 244 306 C244 356 320 362 344 326"
          stroke="#9CA3AF" stroke-width="22" stroke-linecap="round" stroke-linejoin="round"/>
    <circle cx="188" cy="176" r="12" fill="none" stroke="#9CA3AF" stroke-width="8"/>
    <circle cx="344" cy="326" r="12" fill="none" stroke="#9CA3AF" stroke-width="8"/>
    <rect x="314" y="132" width="14" height="56" rx="7" fill="#9CA3AF"/>
    <rect x="293" y="153" width="56" height="14" rx="7" fill="#9CA3AF"/>
  </g>

  <text x="330" y="128"
        font-size="76"
        font-family="Inter, system-ui, -apple-system, Segoe UI, Roboto, Arial"
        font-weight="800"
        fill="#9CA3AF">ShieldPM</text>

  <text x="332" y="176"
        font-size="28"
        font-family="Inter, system-ui, -apple-system, Segoe UI, Roboto, Arial"
        font-weight="500"
        fill="#9CA3AF"
        opacity="0.85">proxy management — hardened</text>
</svg>
